<svg width="1729" height="1802" viewBox="0 0 1729 1802" fill="none" xmlns="http://www.w3.org/2000/svg">
<g clip-path="url(#clip0_1_2)">
<mask id="mask0_1_2" style="mask-type:alpha" maskUnits="userSpaceOnUse" x="1" y="-96" width="1728" height="1801">
<path d="M1729 -96H1V1704.83H1729V-96Z" fill="#D9D9D9"/>
</mask>
<g mask="url(#mask0_1_2)">
<g filter="url(#filter0_f_1_2)">
<path d="M244 598C57.275 452.111 -88.894 438.308 -217.5 469.5L-136.5 1228.5L851.931 1277.61L1796.05 1310.76L1926 713C1926 598 1980.74 654.078 1755 483.5C1472.81 270.277 1090.57 270.357 957.892 443.323C825.218 616.289 477.407 780.36 244 598Z" fill="#FF3E00"/>
</g>
<g filter="url(#filter1_f_1_2)">
<path d="M2061.14 582.5C2066.84 574.777 2009.25 644.078 1783.5 473.5C1501.32 260.277 1190.68 241.034 1058 414C925.326 586.966 477.406 808.86 244 626.5C57.274 480.612 -247.472 322.51 -376.077 353.701" stroke="#FF0000" stroke-width="71"/>
</g>
<g opacity="0.5" filter="url(#filter2_f_1_2)">
<path d="M2061.13 531.531C2066.83 523.809 1810.74 465.719 1585 295.141C1302.82 81.918 1090.56 219.386 957.884 392.352C728.465 691.442 372.906 749.36 139.5 567C-47.226 421.112 -247.479 271.541 -376.085 302.732" stroke="#F43D02" stroke-width="71"/>
</g>
<g filter="url(#filter3_f_1_2)">
<path d="M-478.381 1420.69C-478.381 3538.03 177.061 3084.96 904.465 3084.96C1631.87 3084.96 2155.78 3228.51 2155.78 1420.69C2155.78 1153.12 1566.1 936.208 838.7 936.208C111.296 936.208 -478.381 1153.12 -478.381 1420.69Z" fill="#FCFAF7"/>
</g>
</g>
</g>
<defs>
<filter id="filter0_f_1_2" x="-421.5" y="114.199" width="2557.34" height="1400.56" filterUnits="userSpaceOnUse" color-interpolation-filters="sRGB">
<feFlood flood-opacity="0" result="BackgroundImageFix"/>
<feBlend mode="normal" in="SourceGraphic" in2="BackgroundImageFix" result="shape"/>
<feGaussianBlur stdDeviation="102" result="effect1_foregroundBlur_1_2"/>
</filter>
<filter id="filter1_f_1_2" x="-588.444" y="57.9326" width="2889.46" height="876.303" filterUnits="userSpaceOnUse" color-interpolation-filters="sRGB">
<feFlood flood-opacity="0" result="BackgroundImageFix"/>
<feBlend mode="normal" in="SourceGraphic" in2="BackgroundImageFix" result="shape"/>
<feGaussianBlur stdDeviation="102" result="effect1_foregroundBlur_1_2"/>
</filter>
<filter id="filter2_f_1_2" x="-588.452" y="-53.0189" width="2889.17" height="963.402" filterUnits="userSpaceOnUse" color-interpolation-filters="sRGB">
<feFlood flood-opacity="0" result="BackgroundImageFix"/>
<feBlend mode="normal" in="SourceGraphic" in2="BackgroundImageFix" result="shape"/>
<feGaussianBlur stdDeviation="102" result="effect1_foregroundBlur_1_2"/>
</filter>
<filter id="filter3_f_1_2" x="-762.381" y="652.208" width="3202.16" height="2757.45" filterUnits="userSpaceOnUse" color-interpolation-filters="sRGB">
<feFlood flood-opacity="0" result="BackgroundImageFix"/>
<feBlend mode="normal" in="SourceGraphic" in2="BackgroundImageFix" result="shape"/>
<feGaussianBlur stdDeviation="142" result="effect1_foregroundBlur_1_2"/>
</filter>
<clipPath id="clip0_1_2">
<rect width="1729" height="1802" fill="white"/>
</clipPath>
</defs>
</svg>
